<mxfile host="app.diagrams.net" modified="2021-06-19T04:19:04.480Z" agent="5.0 (Windows NT 10.0; Win64; x64) AppleWebKit/537.36 (KHTML, like Gecko) Chrome/91.0.4472.114 Safari/537.36" etag="478sxWhyZu7XM7IVAdjs" version="14.8.0" type="github">
  <diagram id="J4b6DzZkolP2pMpYlRsM" name="Page-1">
    <mxGraphModel dx="858" dy="450" grid="1" gridSize="10" guides="1" tooltips="1" connect="1" arrows="1" fold="1" page="1" pageScale="1" pageWidth="850" pageHeight="1100" background="none" math="0" shadow="0">
      <root>
        <mxCell id="0" />
        <mxCell id="1" parent="0" />
        <mxCell id="hu1pRNOc13PV_lcluN5o-5" value="" style="rounded=0;whiteSpace=wrap;html=1;fillColor=#99FF33;" vertex="1" parent="1">
          <mxGeometry x="120" y="200" width="320" height="20" as="geometry" />
        </mxCell>
        <mxCell id="hu1pRNOc13PV_lcluN5o-6" value="" style="endArrow=classic;html=1;" edge="1" parent="1">
          <mxGeometry width="50" height="50" relative="1" as="geometry">
            <mxPoint x="120" y="260" as="sourcePoint" />
            <mxPoint x="780" y="260" as="targetPoint" />
          </mxGeometry>
        </mxCell>
        <mxCell id="hu1pRNOc13PV_lcluN5o-8" value="" style="rounded=0;whiteSpace=wrap;html=1;" vertex="1" parent="1">
          <mxGeometry x="240" y="300" width="280" height="20" as="geometry" />
        </mxCell>
        <mxCell id="hu1pRNOc13PV_lcluN5o-9" value="" style="endArrow=none;dashed=1;html=1;" edge="1" parent="1">
          <mxGeometry width="50" height="50" relative="1" as="geometry">
            <mxPoint x="160" y="260" as="sourcePoint" />
            <mxPoint x="160" y="120" as="targetPoint" />
          </mxGeometry>
        </mxCell>
        <mxCell id="hu1pRNOc13PV_lcluN5o-10" value="" style="endArrow=none;dashed=1;html=1;" edge="1" parent="1">
          <mxGeometry width="50" height="50" relative="1" as="geometry">
            <mxPoint x="240" y="400" as="sourcePoint" />
            <mxPoint x="240" y="120" as="targetPoint" />
          </mxGeometry>
        </mxCell>
        <mxCell id="hu1pRNOc13PV_lcluN5o-11" value="" style="endArrow=none;dashed=1;html=1;" edge="1" parent="1">
          <mxGeometry width="50" height="50" relative="1" as="geometry">
            <mxPoint x="440" y="360" as="sourcePoint" />
            <mxPoint x="440" y="120" as="targetPoint" />
          </mxGeometry>
        </mxCell>
        <mxCell id="hu1pRNOc13PV_lcluN5o-16" value="" style="endArrow=classic;startArrow=classic;html=1;" edge="1" parent="1">
          <mxGeometry width="50" height="50" relative="1" as="geometry">
            <mxPoint x="440" y="360" as="sourcePoint" />
            <mxPoint x="520" y="360" as="targetPoint" />
          </mxGeometry>
        </mxCell>
        <mxCell id="hu1pRNOc13PV_lcluN5o-17" value="downtime" style="text;html=1;strokeColor=none;fillColor=none;align=center;verticalAlign=middle;whiteSpace=wrap;rounded=0;fontStyle=1;fontSize=13;" vertex="1" parent="1">
          <mxGeometry x="460" y="360" width="40" height="20" as="geometry" />
        </mxCell>
        <mxCell id="hu1pRNOc13PV_lcluN5o-18" value="" style="endArrow=classic;startArrow=classic;html=1;strokeColor=#000000;" edge="1" parent="1">
          <mxGeometry width="50" height="50" relative="1" as="geometry">
            <mxPoint x="240" y="400" as="sourcePoint" />
            <mxPoint x="680" y="400" as="targetPoint" />
          </mxGeometry>
        </mxCell>
        <mxCell id="hu1pRNOc13PV_lcluN5o-19" value="" style="endArrow=classic;html=1;strokeColor=#000000;exitX=0.5;exitY=1;exitDx=0;exitDy=0;" edge="1" parent="1" source="hu1pRNOc13PV_lcluN5o-5">
          <mxGeometry width="50" height="50" relative="1" as="geometry">
            <mxPoint x="280" y="230" as="sourcePoint" />
            <mxPoint x="320" y="300" as="targetPoint" />
          </mxGeometry>
        </mxCell>
        <mxCell id="hu1pRNOc13PV_lcluN5o-20" value="" style="endArrow=classic;html=1;strokeColor=#000000;exitX=0.631;exitY=1.05;exitDx=0;exitDy=0;exitPerimeter=0;entryX=0.436;entryY=0.1;entryDx=0;entryDy=0;entryPerimeter=0;" edge="1" parent="1" source="hu1pRNOc13PV_lcluN5o-5" target="hu1pRNOc13PV_lcluN5o-8">
          <mxGeometry width="50" height="50" relative="1" as="geometry">
            <mxPoint x="320" y="230" as="sourcePoint" />
            <mxPoint x="358" y="290" as="targetPoint" />
          </mxGeometry>
        </mxCell>
        <mxCell id="hu1pRNOc13PV_lcluN5o-21" value="" style="endArrow=classic;html=1;strokeColor=#000000;exitX=0.75;exitY=1;exitDx=0;exitDy=0;entryX=0.575;entryY=0;entryDx=0;entryDy=0;entryPerimeter=0;" edge="1" parent="1" source="hu1pRNOc13PV_lcluN5o-5" target="hu1pRNOc13PV_lcluN5o-8">
          <mxGeometry width="50" height="50" relative="1" as="geometry">
            <mxPoint x="361" y="240" as="sourcePoint" />
            <mxPoint x="398" y="280" as="targetPoint" />
          </mxGeometry>
        </mxCell>
        <mxCell id="hu1pRNOc13PV_lcluN5o-22" value="" style="endArrow=classic;html=1;strokeColor=#000000;exitX=0.083;exitY=1;exitDx=0;exitDy=0;exitPerimeter=0;" edge="1" parent="1" source="hu1pRNOc13PV_lcluN5o-34">
          <mxGeometry width="50" height="50" relative="1" as="geometry">
            <mxPoint x="450" y="224" as="sourcePoint" />
            <mxPoint x="499" y="300" as="targetPoint" />
          </mxGeometry>
        </mxCell>
        <mxCell id="hu1pRNOc13PV_lcluN5o-23" value="" style="endArrow=classic;html=1;strokeColor=#000000;exitX=0.404;exitY=1;exitDx=0;exitDy=0;exitPerimeter=0;entryX=0.223;entryY=0;entryDx=0;entryDy=0;entryPerimeter=0;" edge="1" parent="1" source="hu1pRNOc13PV_lcluN5o-34" target="hu1pRNOc13PV_lcluN5o-37">
          <mxGeometry width="50" height="50" relative="1" as="geometry">
            <mxPoint x="540" y="230" as="sourcePoint" />
            <mxPoint x="575" y="280" as="targetPoint" />
          </mxGeometry>
        </mxCell>
        <mxCell id="hu1pRNOc13PV_lcluN5o-24" value="" style="endArrow=classic;html=1;strokeColor=#000000;entryX=0.35;entryY=-0.05;entryDx=0;entryDy=0;entryPerimeter=0;" edge="1" parent="1" target="hu1pRNOc13PV_lcluN5o-37">
          <mxGeometry width="50" height="50" relative="1" as="geometry">
            <mxPoint x="570" y="221" as="sourcePoint" />
            <mxPoint x="610" y="300" as="targetPoint" />
          </mxGeometry>
        </mxCell>
        <mxCell id="hu1pRNOc13PV_lcluN5o-30" value="" style="line;strokeWidth=4;direction=south;html=1;perimeter=backbonePerimeter;points=[];outlineConnect=0;fillColor=#7EA6E0;" vertex="1" parent="1">
          <mxGeometry x="430" y="200" width="20" height="20" as="geometry" />
        </mxCell>
        <mxCell id="hu1pRNOc13PV_lcluN5o-31" value="" style="line;strokeWidth=4;direction=south;html=1;perimeter=backbonePerimeter;points=[];outlineConnect=0;" vertex="1" parent="1">
          <mxGeometry x="510" y="300" width="20" height="20" as="geometry" />
        </mxCell>
        <mxCell id="hu1pRNOc13PV_lcluN5o-33" value="" style="endArrow=classic;html=1;strokeColor=#000000;entryX=0.5;entryY=0;entryDx=0;entryDy=0;" edge="1" parent="1" target="hu1pRNOc13PV_lcluN5o-37">
          <mxGeometry width="50" height="50" relative="1" as="geometry">
            <mxPoint x="610" y="220" as="sourcePoint" />
            <mxPoint x="658" y="298" as="targetPoint" />
          </mxGeometry>
        </mxCell>
        <mxCell id="hu1pRNOc13PV_lcluN5o-34" value="" style="rounded=0;whiteSpace=wrap;html=1;fillColor=#FFFFFF;" vertex="1" parent="1">
          <mxGeometry x="440" y="200" width="240" height="20" as="geometry" />
        </mxCell>
        <mxCell id="hu1pRNOc13PV_lcluN5o-37" value="" style="rounded=0;whiteSpace=wrap;html=1;fillColor=#99FF33;" vertex="1" parent="1">
          <mxGeometry x="520" y="300" width="260" height="20" as="geometry" />
        </mxCell>
        <mxCell id="hu1pRNOc13PV_lcluN5o-42" value="profile" style="text;html=1;strokeColor=none;fillColor=none;align=center;verticalAlign=middle;whiteSpace=wrap;rounded=0;fontSize=13;fontStyle=1" vertex="1" parent="1">
          <mxGeometry x="180" y="130" width="40" height="20" as="geometry" />
        </mxCell>
        <mxCell id="hu1pRNOc13PV_lcluN5o-43" value="prepare" style="text;html=1;strokeColor=none;fillColor=none;align=center;verticalAlign=middle;whiteSpace=wrap;rounded=0;fontSize=13;fontStyle=1" vertex="1" parent="1">
          <mxGeometry x="310" y="130" width="40" height="20" as="geometry" />
        </mxCell>
        <mxCell id="hu1pRNOc13PV_lcluN5o-44" value="stop" style="text;html=1;strokeColor=none;fillColor=none;align=center;verticalAlign=middle;whiteSpace=wrap;rounded=0;fontSize=13;fontStyle=1" vertex="1" parent="1">
          <mxGeometry x="460" y="130" width="40" height="20" as="geometry" />
        </mxCell>
        <mxCell id="hu1pRNOc13PV_lcluN5o-46" value="resume" style="text;html=1;strokeColor=none;fillColor=none;align=center;verticalAlign=middle;whiteSpace=wrap;rounded=0;fontSize=13;fontStyle=1" vertex="1" parent="1">
          <mxGeometry x="590" y="130" width="40" height="20" as="geometry" />
        </mxCell>
        <mxCell id="hu1pRNOc13PV_lcluN5o-47" value="total migration time" style="text;html=1;strokeColor=none;fillColor=none;align=center;verticalAlign=middle;whiteSpace=wrap;rounded=0;fontSize=13;fontStyle=1" vertex="1" parent="1">
          <mxGeometry x="380" y="410" width="210" height="20" as="geometry" />
        </mxCell>
        <mxCell id="hu1pRNOc13PV_lcluN5o-48" value="time" style="text;html=1;strokeColor=none;fillColor=none;align=center;verticalAlign=middle;whiteSpace=wrap;rounded=0;fontSize=13;fontStyle=1" vertex="1" parent="1">
          <mxGeometry x="50" y="250" width="40" height="20" as="geometry" />
        </mxCell>
        <mxCell id="hu1pRNOc13PV_lcluN5o-49" value="source" style="text;html=1;strokeColor=none;fillColor=none;align=center;verticalAlign=middle;whiteSpace=wrap;rounded=0;fontSize=13;fontStyle=1" vertex="1" parent="1">
          <mxGeometry x="20" y="200" width="40" height="20" as="geometry" />
        </mxCell>
        <mxCell id="hu1pRNOc13PV_lcluN5o-50" value="&lt;b&gt;destination&lt;/b&gt;" style="text;html=1;strokeColor=none;fillColor=none;align=center;verticalAlign=middle;whiteSpace=wrap;rounded=0;fontSize=13;" vertex="1" parent="1">
          <mxGeometry x="30" y="300" width="140" height="20" as="geometry" />
        </mxCell>
        <mxCell id="hu1pRNOc13PV_lcluN5o-52" value="" style="endArrow=none;dashed=1;html=1;fontSize=13;strokeColor=#000000;" edge="1" parent="1">
          <mxGeometry width="50" height="50" relative="1" as="geometry">
            <mxPoint x="680" y="400" as="sourcePoint" />
            <mxPoint x="680" y="120" as="targetPoint" />
          </mxGeometry>
        </mxCell>
        <mxCell id="hu1pRNOc13PV_lcluN5o-53" value="" style="endArrow=none;dashed=1;html=1;fontSize=13;strokeColor=#000000;" edge="1" parent="1">
          <mxGeometry width="50" height="50" relative="1" as="geometry">
            <mxPoint x="520" y="360" as="sourcePoint" />
            <mxPoint x="520" y="120" as="targetPoint" />
          </mxGeometry>
        </mxCell>
      </root>
    </mxGraphModel>
  </diagram>
</mxfile>
